<?xml version="1.0" encoding="UTF-8"?>
<svg version="1.1" xmlns="http://www.w3.org/2000/svg" width="650" height="181">
<path d="M0 0 C1.54559097 -0.00856522 1.54559097 -0.00856522 3.12240601 -0.01730347 C4.25233475 -0.01842133 5.38226349 -0.01953918 6.5464325 -0.02069092 C7.736922 -0.02565582 8.9274115 -0.03062073 10.15397644 -0.03573608 C13.4206322 -0.04784488 16.68725217 -0.05530299 19.95392632 -0.05974674 C21.99576801 -0.06267942 24.03760411 -0.06678461 26.07944298 -0.07125092 C32.47065845 -0.08492341 38.86186112 -0.0945911 45.2530902 -0.09845281 C52.62561691 -0.10293215 59.99795808 -0.12047516 67.37042838 -0.1494534 C73.07245013 -0.17108611 78.77441975 -0.18115794 84.47648209 -0.18249393 C87.8804848 -0.18354089 91.28431305 -0.18942516 94.68827248 -0.20731354 C98.48748995 -0.22435125 102.28625491 -0.22249899 106.085495 -0.21600342 C107.77127907 -0.22982559 107.77127907 -0.22982559 109.49111938 -0.243927 C115.03005309 -0.21423353 119.3258475 -0.17335734 124.01005554 3.14044189 C126.85397768 6.24266727 127.38687659 8.2744061 127.3977356 12.44718933 C127.40764023 13.52247391 127.41754486 14.59775848 127.42774963 15.70562744 C127.42324799 16.88028564 127.41874634 18.05494385 127.41410828 19.26519775 C127.42097153 20.50620743 127.42783478 21.7472171 127.43490601 23.02583313 C127.4500737 26.42683485 127.4516674 29.82728861 127.44596362 33.22828364 C127.44287298 36.06876214 127.44896285 38.90919102 127.45500237 41.74966246 C127.46904927 48.45149747 127.46748513 55.15320501 127.45610046 61.8550415 C127.44462003 68.76591286 127.45869293 75.67639611 127.48549694 82.58721632 C127.50765855 88.5236595 127.51429028 94.45998089 127.50842053 100.3964625 C127.50505067 103.94072771 127.50746748 107.48474416 127.52467155 111.02897453 C127.54302047 114.98156811 127.52894873 118.93368496 127.51176453 122.8862915 C127.52626648 124.64524246 127.52626648 124.64524246 127.5410614 126.43972778 C127.46873159 134.36915614 127.46873159 134.36915614 125.11619568 138.32505798 C120.18535568 142.57518714 115.4176905 142.41566813 109.20927429 142.33575439 C108.46729797 142.33374023 107.72532166 142.33172607 106.96086121 142.32965088 C104.20636251 142.31923796 101.4519524 142.29131553 98.69755554 142.26544189 C92.53068054 142.22419189 86.36380554 142.18294189 80.01005554 142.14044189 C80.01005554 126.63044189 80.01005554 111.12044189 80.01005554 95.14044189 C64.83005554 95.14044189 49.65005554 95.14044189 34.01005554 95.14044189 C34.01005554 110.65044189 34.01005554 126.16044189 34.01005554 142.14044189 C24.54318054 142.26419189 24.54318054 142.26419189 14.88505554 142.39044189 C12.90360535 142.42685791 10.92215515 142.46327393 8.88066101 142.50079346 C7.29619935 142.51248457 5.71172561 142.5226754 4.12724304 142.53106689 C3.31585876 142.55153076 2.50447449 142.57199463 1.66850281 142.59307861 C-3.69176038 142.59635406 -6.80366053 141.79963355 -10.98994446 138.14044189 C-14.67893325 133.79660302 -14.38490029 129.54656996 -14.28291321 124.12091064 C-14.27989197 123.35927612 -14.27687073 122.5976416 -14.27375793 121.81292725 C-14.25813415 118.98445974 -14.21625026 116.15618634 -14.17744446 113.32794189 C-14.11556946 106.99606689 -14.05369446 100.66419189 -13.98994446 94.14044189 C1.52005554 94.14044189 17.03005554 94.14044189 33.01005554 94.14044189 C33.01005554 78.96044189 33.01005554 63.78044189 33.01005554 48.14044189 C17.50005554 48.14044189 1.99005554 48.14044189 -13.98994446 48.14044189 C-14.08275696 38.64262939 -14.08275696 38.64262939 -14.17744446 28.95294189 C-14.20475647 26.9623877 -14.23206848 24.9718335 -14.26020813 22.92095947 C-14.26897428 21.33397019 -14.27661792 19.74697415 -14.28291321 18.15997314 C-14.29826111 17.3434729 -14.31360901 16.52697266 -14.329422 15.68572998 C-14.33203304 9.98755906 -13.26089767 6.78988731 -9.48994446 2.39044189 C-6.56582269 -0.04632624 -3.63050812 0.01204652 0 0 Z " fill="#DA9100" transform="translate(13.989944458007813,2.85955810546875)"/>
<path d="M0 0 C11.55 0 23.1 0 35 0 C35.33 22.11 35.66 44.22 36 67 C42.6 60.4 49.2 53.8 56 47 C58.64 44.69 61.28 42.38 64 40 C64.62745117 39.20368164 65.25490234 38.40736328 65.90136719 37.58691406 C69.42366058 34.92347676 73.29615964 35.51093791 77.578125 35.609375 C78.5046991 35.61503479 79.43127319 35.62069458 80.38592529 35.62652588 C83.34114562 35.64889079 86.29514705 35.69908738 89.25 35.75 C91.2551908 35.77006485 93.26040064 35.78831565 95.265625 35.8046875 C100.17755194 35.848756 105.08856942 35.91778445 110 36 C109.04910439 37.11812749 108.09695694 38.23519044 107.14428711 39.35180664 C106.6141954 39.97398575 106.0841037 40.59616486 105.53794861 41.23719788 C102.99537302 44.15150699 100.21464138 46.80457457 97.44140625 49.49609375 C95.4646374 51.52346789 93.61797625 53.57843636 91.7734375 55.72265625 C87.74669609 60.36422528 83.43000972 64.68114292 79.0625 69 C78.28326172 69.77472656 77.50402344 70.54945312 76.70117188 71.34765625 C74.8030758 73.23410757 72.90266851 75.11816245 71 77 C72.83592175 80.86745318 75.26995463 84.04980494 77.9375 87.375 C78.93629186 88.6327379 79.93498711 89.89055253 80.93359375 91.1484375 C81.44390137 91.7887793 81.95420898 92.42912109 82.47998047 93.08886719 C84.83383501 96.04838749 87.16644113 99.02447054 89.5 102 C90.41133573 103.16025256 91.32279461 104.3204084 92.234375 105.48046875 C92.68748047 106.05716309 93.14058594 106.63385742 93.60742188 107.22802734 C95.51459283 109.6547887 97.42267708 112.08083136 99.33081055 114.50683594 C100.71281589 116.26518989 102.09281151 118.02510661 103.47265625 119.78515625 C105.05411417 121.80123153 106.64567075 123.80736916 108.24609375 125.80859375 C108.88675781 126.61425781 109.52742188 127.41992188 110.1875 128.25 C110.73792969 128.93578125 111.28835938 129.6215625 111.85546875 130.328125 C113 132 113 132 113 134 C107.22050359 134.32391553 101.44638698 134.5583419 95.65991211 134.71411133 C93.69706141 134.7790829 91.73483012 134.86750625 89.77416992 134.98071289 C72.61842921 135.94569602 72.61842921 135.94569602 67.39868164 131.31201172 C64.48130999 128.14767692 62.25674471 124.65521543 60 121 C58.90894998 119.59700879 57.79987571 118.20749999 56.66015625 116.84375 C55.79162805 115.7312248 54.92557418 114.61676162 54.0625 113.5 C51.06419937 109.64816853 48.05889354 105.80409962 45 102 C41.25838804 103.52436043 38.04878073 105.46890682 36 109 C35.22863961 113.26728536 35.21047625 117.48438432 35.1875 121.8125 C35.125625 125.834375 35.06375 129.85625 35 134 C23.45 134 11.9 134 0 134 C0 89.78 0 45.56 0 0 Z " fill="#FFFFFF" transform="translate(358,11)"/>
<path d="M0 0 C11.88 0 23.76 0 36 0 C39.30629407 7.27384696 42.4843926 14.50260346 45.42578125 21.91796875 C45.81823532 22.90122635 46.21068939 23.88448395 46.61503601 24.89753723 C47.84998826 27.993216 49.08130799 31.09032409 50.3125 34.1875 C51.15665963 36.30543478 52.00105858 38.42327418 52.84570312 40.54101562 C54.8998988 45.69291295 56.95112603 50.84598413 59 56 C62.35334301 48.77108411 65.48778816 41.48883621 68.42578125 34.08203125 C69.01446236 32.60714485 69.01446236 32.60714485 69.61503601 31.10246277 C70.84998826 28.006784 72.08130799 24.90967591 73.3125 21.8125 C74.15665963 19.69456522 75.00105858 17.57672582 75.84570312 15.45898438 C77.90034497 10.30725726 79.95005238 5.15360664 82 0 C93.22 0 104.44 0 116 0 C114.07593771 5.77218686 112.12659433 11.36963182 109.8046875 16.96875 C109.50000549 17.7102832 109.19532349 18.45181641 108.88140869 19.21582031 C107.8822825 21.64513237 106.87877762 24.07260659 105.875 26.5 C105.16631551 28.2193234 104.45782317 29.93872601 103.74951172 31.65820312 C101.88305144 36.18650006 100.01238955 40.7130503 98.14086914 45.23925781 C97.00857085 47.97925976 95.87799718 50.71996651 94.74804688 53.4609375 C90.47116436 63.83445399 86.17671569 74.20038288 81.85351562 84.5546875 C80.69559889 87.32846084 79.5425037 90.10410317 78.39648438 92.8828125 C77.06915568 96.09426542 75.72550712 99.29824195 74.375 102.5 C73.84543701 103.79647461 73.84543701 103.79647461 73.30517578 105.11914062 C68.56646231 116.19781764 60.08143393 126.75675909 48.75 131.4375 C36.88275147 135.76167716 22.81131987 135.36320041 11 131 C7.87925882 129.50418112 4.91562941 127.86276323 2 126 C2.47969149 119.85586646 5.27709515 114.99657854 8.0625 109.625 C8.77116211 108.23474609 8.77116211 108.23474609 9.49414062 106.81640625 C10.65557502 104.54046409 11.82433067 102.26861227 13 100 C13.67804688 100.3609375 14.35609375 100.721875 15.0546875 101.09375 C22.62766687 104.8697508 28.88964022 106.63531513 37.125 104 C38.053125 103.505 38.053125 103.505 39 103 C40.4772159 96.78259425 39.33743035 93.18823867 36.72265625 87.46484375 C36.36491623 86.64514603 36.00717621 85.8254483 35.63859558 84.98091125 C34.46175459 82.29280114 33.26206545 79.61553611 32.0625 76.9375 C31.23929668 75.06627065 30.41803104 73.19418776 29.59863281 71.32128906 C28.3346959 68.43317519 27.06946281 65.54570386 25.79794312 62.66091919 C21.49923168 52.90561248 17.36495365 43.08389058 13.25 33.25 C12.28955703 30.95935586 11.32843291 28.66899992 10.36671448 26.37889099 C9.76717646 24.95105665 9.16822883 23.52297422 8.56993103 22.09461975 C7.13889422 18.68367779 5.6928529 15.28039985 4.21679688 11.88867188 C3.93519714 11.2400116 3.65359741 10.59135132 3.36346436 9.92303467 C2.59803644 8.16442126 1.82799106 6.40781961 1.05761719 4.65136719 C0 2 0 2 0 0 Z " fill="#FFFFFF" transform="translate(234,47)"/>
<path d="M0 0 C7.82770123 7.72263141 11.44700347 17.97955375 11.86634827 28.83590698 C11.86412766 29.94177155 11.86190704 31.04763611 11.85961914 32.18701172 C11.85950584 34.078293 11.85950584 34.078293 11.85939026 36.00778198 C11.85428484 37.36846965 11.84906886 38.7291569 11.84375 40.08984375 C11.84188287 41.49374338 11.84046036 42.89764367 11.83946228 44.30154419 C11.83566033 47.98073147 11.82585008 51.65987873 11.8147583 55.33905029 C11.80449406 59.09972584 11.79989901 62.8604081 11.79492188 66.62109375 C11.78475738 73.9883165 11.76517983 81.3554296 11.74609375 88.72265625 C0.85609375 88.72265625 -10.03390625 88.72265625 -21.25390625 88.72265625 C-21.74890625 84.76265625 -21.74890625 84.76265625 -22.25390625 80.72265625 C-22.72699219 81.12097656 -23.20007813 81.51929688 -23.6875 81.9296875 C-24.34878906 82.45949219 -25.01007812 82.98929687 -25.69140625 83.53515625 C-26.32949219 84.05722656 -26.96757813 84.57929688 -27.625 85.1171875 C-34.38775323 89.24718985 -41.25342891 90.2578374 -49.06640625 90.16015625 C-49.94151855 90.15040771 -50.81663086 90.14065918 -51.71826172 90.13061523 C-62.94725274 89.82440777 -71.08152279 87.17106136 -79.18359375 79.12109375 C-85.28125383 72.05701207 -86.12743577 64.72588599 -85.6953125 55.609375 C-84.86327912 48.28306338 -82.28801362 43.03635681 -76.56640625 38.34765625 C-67.8196308 32.5109611 -58.85274454 30.547278 -48.44921875 30.625 C-47.36324905 30.62712242 -47.36324905 30.62712242 -46.25534058 30.62928772 C-43.96315218 30.6348455 -41.67106468 30.64738992 -39.37890625 30.66015625 C-37.81640767 30.66517672 -36.25390754 30.66973866 -34.69140625 30.67382812 C-30.8788679 30.68480106 -27.06640413 30.70203615 -23.25390625 30.72265625 C-23.87785417 29.26089443 -24.50793079 27.80174748 -25.140625 26.34375 C-25.49084717 25.53091553 -25.84106934 24.71808105 -26.2019043 23.88061523 C-28.1279072 19.9298286 -30.38444304 19.05305227 -34.37890625 17.53515625 C-47.52448306 14.77882563 -58.65390599 18.67764624 -70.25390625 24.72265625 C-72.12760231 21.14920878 -73.97436317 17.56250879 -75.81640625 13.97265625 C-76.34943359 12.956875 -76.88246094 11.94109375 -77.43164062 10.89453125 C-78.1809082 9.425 -78.1809082 9.425 -78.9453125 7.92578125 C-79.41138916 7.02504883 -79.87746582 6.12431641 -80.35766602 5.19628906 C-81.34525061 2.47054482 -81.40319251 1.35523437 -80.25390625 -1.27734375 C-59.04794617 -15.69404389 -19.97979446 -16.24137138 0 0 Z M-49.25390625 51.72265625 C-51.75422279 55.47313107 -51.78994179 57.28121891 -51.25390625 61.72265625 C-48.71253466 64.8821993 -47.10767966 66.43806511 -43.25390625 67.72265625 C-37.76794804 68.14465304 -34.10381134 67.32723491 -29.25390625 64.72265625 C-25.75522055 61.60664477 -25.75522055 61.60664477 -23.25390625 57.72265625 C-23.18440084 56.18241629 -23.16938268 54.63930637 -23.19140625 53.09765625 C-23.20042969 52.28039062 -23.20945312 51.463125 -23.21875 50.62109375 C-23.23035156 49.99460938 -23.24195313 49.368125 -23.25390625 48.72265625 C-26.08783551 48.64090829 -28.91935444 48.5818064 -31.75390625 48.53515625 C-32.94113281 48.49745117 -32.94113281 48.49745117 -34.15234375 48.45898438 C-39.87420458 48.38863363 -44.06163701 49.25862582 -49.25390625 51.72265625 Z " fill="#FFFFFF" transform="translate(638.25390625,56.27734375)"/>
<path d="M0 0 C1.24423737 -0.00021904 1.24423737 -0.00021904 2.51361084 -0.0004425 C5.25690318 0.00025447 8.00012772 0.00803686 10.7434082 0.01586914 C12.64484113 0.01773408 14.54627455 0.01915763 16.44770813 0.02015686 C21.45363694 0.02397604 26.45953675 0.03380123 31.4654541 0.04486084 C37.47100475 0.05688575 43.47656509 0.06148006 49.48212433 0.06731415 C58.60699953 0.07701328 67.73181113 0.09617405 76.85668945 0.11352539 C76.85668945 15.62352539 76.85668945 31.13352539 76.85668945 47.11352539 C45.50911639 47.87577641 14.21132431 48.25295559 -17.14331055 48.11352539 C-17.21759817 42.65090901 -17.27197769 37.18858824 -17.30810547 31.72558594 C-17.32317001 29.86811194 -17.34362564 28.01067338 -17.36962891 26.15332031 C-17.40611513 23.47981 -17.42306024 20.80677095 -17.4362793 18.13305664 C-17.45176315 17.30578568 -17.46724701 16.47851471 -17.48320007 15.62617493 C-17.48485019 9.94284445 -16.40336174 6.75025178 -12.64331055 2.36352539 C-8.99320753 -0.67822713 -4.47389234 -0.02051572 0 0 Z " fill="#F7B718" transform="translate(17.143310546875,2.886474609375)"/>
<path d="M0 0 C15.51 0 31.02 0 47 0 C47.16043524 21.51169141 47.16043524 21.51169141 47.1953125 30.68164062 C47.21922352 36.93869596 47.24750957 43.19551714 47.30175781 49.45239258 C47.34522071 54.49688088 47.36913827 59.54111809 47.37950897 64.58577919 C47.38689952 66.51032781 47.40133154 68.4348627 47.42292023 70.35930443 C47.45196014 73.05518663 47.45595577 75.75003147 47.45410156 78.44604492 C47.47567322 79.63935173 47.47567322 79.63935173 47.49768066 80.85676575 C47.47071991 84.47972782 47.13836203 86.76537932 45.28411865 89.90962219 C33.95139379 100.2810959 10.47769838 94 0 94 C0 62.98 0 31.96 0 0 Z " fill="#F6B617" transform="translate(94,51)"/>
<path d="M0 0 C0 10.56 0 21.12 0 32 C-3.96 32 -7.92 32 -12 32 C-17.62519644 33.42410036 -21.88582149 34.76481624 -26 39 C-28.9706845 44.09260199 -30.10417533 48.29811879 -30.20532227 54.13574219 C-30.2352401 55.66687653 -30.2352401 55.66687653 -30.26576233 57.22894287 C-30.29083107 58.87131927 -30.29083107 58.87131927 -30.31640625 60.546875 C-30.33718735 61.6732135 -30.35796844 62.799552 -30.37937927 63.96002197 C-30.44474333 67.55661949 -30.50369885 71.15328977 -30.5625 74.75 C-30.6056977 77.1888096 -30.6493124 79.62761184 -30.69335938 82.06640625 C-30.80119563 88.04419735 -30.9003674 94.02204399 -31 100 C-42.55 100 -54.1 100 -66 100 C-66 67.66 -66 35.32 -66 2 C-55.11 2 -44.22 2 -33 2 C-32.505 6.455 -32.505 6.455 -32 11 C-30.906875 10.0925 -29.81375 9.185 -28.6875 8.25 C-20.08371258 1.78569791 -10.55348932 0 0 0 Z " fill="#FFFFFF" transform="translate(546,45)"/>
<path d="M0 0 C11.55 0 23.1 0 35 0 C35 32.34 35 64.68 35 98 C23.45 98 11.9 98 0 98 C0 65.66 0 33.32 0 0 Z " fill="#FFFFFF" transform="translate(191,47)"/>
<path d="M0 0 C4.2318628 4.12606623 5.84096974 8.02802479 6.3125 13.875 C6.14364063 18.86573248 4.8938272 22.9658893 1.41796875 26.69921875 C-4.91774782 32.39998333 -10.32012325 33.47079052 -18.7734375 33.30859375 C-26.0527754 32.61238589 -30.28859849 29.27524977 -34.87109375 23.78125 C-37.3846701 19.81519182 -37.3823671 15.58840524 -37 11 C-35.04497492 5.12375318 -32.08218816 1.45588795 -27 -2 C-18.34070892 -6.22895611 -8.13686118 -4.66695204 0 0 Z " fill="#FFFFFF" transform="translate(224,4)"/>
</svg>
